<svg xmlns="http://www.w3.org/2000/svg" width="20.219" height="23.108" viewBox="0 0 20.219 23.108">
  <path id="Icon_awesome-discord" data-name="Icon awesome-discord" d="M13.414,10.976a1.183,1.183,0,1,1-1.179-1.282A1.231,1.231,0,0,1,13.414,10.976Zm-5.4-1.282a1.287,1.287,0,0,0,0,2.565A1.231,1.231,0,0,0,9.2,10.976,1.224,1.224,0,0,0,8.018,9.694Zm12.2-7.314V23.108c-2.911-2.572-1.98-1.721-5.361-4.864l.612,2.137H2.369A2.374,2.374,0,0,1,0,18V2.38A2.374,2.374,0,0,1,2.369,0H17.851A2.374,2.374,0,0,1,20.219,2.38ZM16.926,13.333A15.473,15.473,0,0,0,15.263,6.6a5.713,5.713,0,0,0-3.247-1.213l-.162.185a7.689,7.689,0,0,1,2.877,1.467A9.817,9.817,0,0,0,6.1,6.7c-.427.2-.682.335-.682.335A7.8,7.8,0,0,1,8.457,5.523l-.116-.139A5.713,5.713,0,0,0,5.1,6.6a15.472,15.472,0,0,0-1.664,6.736,4.189,4.189,0,0,0,3.524,1.756s.427-.52.774-.959a3.593,3.593,0,0,1-2.022-1.363c.17.119.45.273.474.289a8.422,8.422,0,0,0,7.21.4,6.612,6.612,0,0,0,1.329-.682,3.646,3.646,0,0,1-2.091,1.375c.347.439.763.936.763.936A4.223,4.223,0,0,0,16.926,13.333Z" fill="#707070"/>
</svg>
