<svg xmlns="http://www.w3.org/2000/svg" width="22.381" height="22.386" viewBox="0 0 22.381 22.386">
  <path id="Icon_awesome-globe" data-name="Icon awesome-globe" d="M15.187,7.423c-.654-4.03-2.2-6.86-3.994-6.86S7.853,3.392,7.2,7.423ZM6.86,11.755a28.289,28.289,0,0,0,.149,2.888h8.363a28.289,28.289,0,0,0,.149-2.888,28.289,28.289,0,0,0-.149-2.888H7.009A28.289,28.289,0,0,0,6.86,11.755ZM21.515,7.423a11.217,11.217,0,0,0-7.131-6.391A15.233,15.233,0,0,1,16.64,7.423ZM8,1.032A11.209,11.209,0,0,0,.871,7.423H5.745A15.171,15.171,0,0,1,8,1.032ZM22,8.867H16.821c.095.948.149,1.918.149,2.888s-.054,1.941-.149,2.888h5.172a11.1,11.1,0,0,0,.388-2.888A11.29,11.29,0,0,0,22,8.867ZM5.416,11.755c0-.97.054-1.941.149-2.888H.388a10.942,10.942,0,0,0,0,5.777H5.56C5.47,13.7,5.416,12.726,5.416,11.755ZM7.2,16.088c.654,4.03,2.2,6.86,3.994,6.86s3.34-2.83,3.994-6.86Zm7.19,6.391a11.227,11.227,0,0,0,7.131-6.391H16.645a15.233,15.233,0,0,1-2.257,6.391ZM.871,16.088A11.217,11.217,0,0,0,8,22.479a15.233,15.233,0,0,1-2.257-6.391H.871Z" transform="translate(0 -0.563)" fill="#707070"/>
</svg>
