<svg xmlns="http://www.w3.org/2000/svg" width="17.573" height="5.857" viewBox="0 0 17.573 5.857">
  <path id="Icon_awesome-hand-holding" data-name="Icon awesome-hand-holding" d="M17.246,22.747a1.01,1.01,0,0,0-1.3,0L13.127,25a1.942,1.942,0,0,1-1.22.427H8.3a.488.488,0,1,1,0-.976h2.389a1.016,1.016,0,0,0,1.016-.811.977.977,0,0,0-.964-1.141H5.857a3.591,3.591,0,0,0-2.261.8l-1.419,1.15H.488A.49.49,0,0,0,0,24.941v2.929a.49.49,0,0,0,.488.488H11.373a1.955,1.955,0,0,0,1.22-.427l4.613-3.691A.976.976,0,0,0,17.246,22.747Z" transform="translate(0 -22.5)"/>
</svg>
