<svg xmlns="http://www.w3.org/2000/svg" width="20.231" height="20.226" viewBox="0 0 20.231 20.226">
  <path id="Icon_awesome-instagram" data-name="Icon awesome-instagram" d="M10.112,7.165A5.186,5.186,0,1,0,15.3,12.351,5.178,5.178,0,0,0,10.112,7.165Zm0,8.557a3.371,3.371,0,1,1,3.371-3.371,3.378,3.378,0,0,1-3.371,3.371ZM16.72,6.953a1.21,1.21,0,1,1-1.21-1.21A1.207,1.207,0,0,1,16.72,6.953Zm3.435,1.228A5.986,5.986,0,0,0,18.52,3.943a6.025,6.025,0,0,0-4.238-1.634c-1.67-.095-6.675-.095-8.345,0A6.016,6.016,0,0,0,1.7,3.938,6.005,6.005,0,0,0,.066,8.176c-.095,1.67-.095,6.675,0,8.345A5.986,5.986,0,0,0,1.7,20.759a6.033,6.033,0,0,0,4.238,1.634c1.67.095,6.675.095,8.345,0a5.986,5.986,0,0,0,4.238-1.634,6.025,6.025,0,0,0,1.634-4.238c.095-1.67.095-6.671,0-8.34ZM18,18.313a3.413,3.413,0,0,1-1.923,1.923c-1.331.528-4.491.406-5.962.406s-4.635.117-5.962-.406a3.413,3.413,0,0,1-1.923-1.923c-.528-1.331-.406-4.491-.406-5.962S1.7,7.716,2.228,6.389A3.413,3.413,0,0,1,4.15,4.466c1.331-.528,4.491-.406,5.962-.406s4.635-.117,5.962.406A3.413,3.413,0,0,1,18,6.389c.528,1.331.406,4.491.406,5.962S18.525,16.986,18,18.313Z" transform="translate(0.005 -2.238)" fill="#707070"/>
</svg>
