<svg xmlns="http://www.w3.org/2000/svg" width="20.916" height="20.056" viewBox="0 0 20.916 20.056">
  <g id="Icon_feather-shopping-cart" data-name="Icon feather-shopping-cart" transform="translate(-0.5 -0.5)">
    <path id="Path_23" data-name="Path 23" d="M13.72,30.86a.86.86,0,1,1-.86-.86A.86.86,0,0,1,13.72,30.86Z" transform="translate(-4.481 -12.164)" fill="none" stroke="#fff" stroke-linecap="round" stroke-linejoin="round" stroke-width="2"/>
    <path id="Path_24" data-name="Path 24" d="M30.22,30.86a.86.86,0,1,1-.86-.86A.86.86,0,0,1,30.22,30.86Z" transform="translate(-11.524 -12.164)" fill="none" stroke="#fff" stroke-linecap="round" stroke-linejoin="round" stroke-width="2"/>
    <path id="Path_25" data-name="Path 25" d="M1.5,1.5H4.939l2.3,11.513A1.72,1.72,0,0,0,8.963,14.4H17.32a1.72,1.72,0,0,0,1.72-1.384L20.416,5.8H5.8" fill="none" stroke="#fff" stroke-linecap="round" stroke-linejoin="round" stroke-width="2"/>
  </g>
</svg>
