<svg xmlns="http://www.w3.org/2000/svg" width="23.108" height="18.768" viewBox="0 0 23.108 18.768">
  <path id="Icon_awesome-twitter" data-name="Icon awesome-twitter" d="M20.733,8.058c.015.205.015.411.015.616A13.382,13.382,0,0,1,7.273,22.149,13.383,13.383,0,0,1,0,20.023a9.8,9.8,0,0,0,1.144.059,9.485,9.485,0,0,0,5.88-2.023A4.744,4.744,0,0,1,2.6,14.773a5.972,5.972,0,0,0,.894.073,5.009,5.009,0,0,0,1.246-.161,4.737,4.737,0,0,1-3.8-4.648V9.979a4.77,4.77,0,0,0,2.141.6A4.743,4.743,0,0,1,1.613,4.246,13.462,13.462,0,0,0,11.378,9.2a5.346,5.346,0,0,1-.117-1.085,4.74,4.74,0,0,1,8.2-3.24,9.324,9.324,0,0,0,3.006-1.144,4.723,4.723,0,0,1-2.082,2.61,9.494,9.494,0,0,0,2.727-.733,10.18,10.18,0,0,1-2.375,2.449Z" transform="translate(0 -3.381)" fill="#707070"/>
</svg>
